<svg width="31" height="54" viewBox="0 0 31 54" fill="none" xmlns="http://www.w3.org/2000/svg">
<path d="M26.7004 5.90625H4.72434C4.19584 5.90625 3.76886 6.66035 3.76886 7.59375V46.4062C3.76886 47.3396 4.19584 48.0938 4.72434 48.0938H26.7004C27.2289 48.0938 27.6558 47.3396 27.6558 46.4062V7.59375C27.6558 6.66035 27.2289 5.90625 26.7004 5.90625ZM25.7449 44.7188H20.2479V31.7566H23.3532L23.819 25.3916H20.2479V21.3258C20.2479 19.4801 20.5375 18.225 22.0334 18.225H23.9414V12.5297C23.61 12.4506 22.4783 12.2766 21.1586 12.2766C18.4056 12.2766 16.5215 15.2455 16.5215 20.693V25.3863H13.4102V31.7514H16.5245V44.7188H5.67982V9.28125H25.7449V44.7188Z" fill="#484FD9"/>
</svg>
