<svg width="31" height="54" viewBox="0 0 31 54" fill="none" xmlns="http://www.w3.org/2000/svg">
<path d="M27.7089 13.4104C26.7952 14.1065 25.8009 14.6074 24.7768 14.8026C25.8401 13.6869 26.6364 11.9243 27.0162 9.84553C26.0184 10.8938 24.9253 11.6289 23.7855 12.0182C23.3091 11.1187 22.7329 10.4021 22.0928 9.91307C21.4527 9.42405 20.7625 9.17308 20.0651 9.1758C17.2434 9.1758 14.9742 13.2153 14.9742 18.1723C14.9742 18.8684 15.0219 19.5645 15.0996 20.2342C10.8746 19.844 7.10639 16.2791 4.60124 10.8211C4.14478 12.1981 3.90557 13.7659 3.90852 15.3615C3.90852 18.4834 4.80727 21.2362 6.17778 22.8551C5.37012 22.7989 4.58136 22.4068 3.87568 21.7108V21.8215C3.87568 26.1932 5.6254 29.816 7.95736 30.6492C7.51951 30.8501 7.06909 30.9529 6.61671 30.9551C6.28527 30.9551 5.97176 30.8971 5.65526 30.818C6.3002 34.3828 8.17832 36.9721 10.4147 37.0565C8.66502 39.477 6.47338 40.9008 4.09364 40.9008C3.66666 40.9008 3.27253 40.8744 2.86346 40.7901C5.12078 43.3477 7.79911 44.8242 10.6835 44.8242C20.0472 44.8242 25.1709 31.1238 25.1709 19.2322C25.1709 18.842 25.1709 18.4518 25.156 18.0615C26.1473 16.7801 27.0162 15.1928 27.7089 13.4104Z" fill="#484FD9"/>
</svg>
