<svg width="31" height="54" viewBox="0 0 31 54" fill="none" xmlns="http://www.w3.org/2000/svg">
<path d="M25.3661 5.90625H5.3189C4.25892 5.90625 3.39899 7.425 3.39899 9.29707V44.7029C3.39899 46.575 4.25892 48.0938 5.3189 48.0938H25.3661C26.426 48.0938 27.286 46.575 27.286 44.7029V9.29707C27.286 7.425 26.426 5.90625 25.3661 5.90625ZM25.3661 44.7188C11.9953 44.7135 5.30995 44.7082 5.30995 44.7029C5.31293 21.0885 5.31592 9.28125 5.3189 9.28125C18.6896 9.28652 25.375 9.2918 25.375 9.29707C25.372 32.9115 25.369 44.7188 25.3661 44.7188ZM6.94023 21.7213H10.4845V41.8553H6.94023V21.7213ZM8.71384 18.9686C9.84549 18.9686 10.7681 17.3443 10.7681 15.3404C10.7681 14.864 10.715 14.3922 10.6117 13.952C10.5085 13.5118 10.3572 13.1119 10.1664 12.775C9.97568 12.4381 9.74922 12.1708 9.49998 11.9885C9.25074 11.8061 8.98361 11.7123 8.71384 11.7123C8.44407 11.7123 8.17694 11.8061 7.9277 11.9885C7.67847 12.1708 7.452 12.4381 7.26125 12.775C7.07049 13.1119 6.91917 13.5118 6.81593 13.952C6.7127 14.3922 6.65956 14.864 6.65956 15.3404C6.65657 17.3443 7.57622 18.9686 8.71384 18.9686ZM16.2472 31.8937C16.2472 29.2676 16.5309 26.7258 18.3731 26.7258C20.1886 26.7258 20.2154 29.7264 20.2154 32.0625V41.8553H23.7567V30.8127C23.7567 25.3916 23.0938 21.2203 19.5078 21.2203C17.7849 21.2203 16.6294 22.892 16.1546 24.474H16.1069V21.7213H12.706V41.8553H16.2472V31.8937Z" fill="#484FD9"/>
</svg>
