<svg width="32" height="54" viewBox="0 0 32 54" fill="none" xmlns="http://www.w3.org/2000/svg">
<path d="M16.0155 4.02368C8.6314 4.01841 2.6507 14.5758 2.6507 27.6065C2.6507 37.9108 6.39199 46.67 11.6023 49.8868C12.304 50.1979 12.1965 49.3172 12.1965 48.7161V44.6292C8.1447 45.4676 7.98048 40.7321 7.70876 39.9411C7.15936 38.2852 5.86051 37.8633 6.24867 37.0723C7.17131 36.2338 8.11186 37.2833 9.2017 40.1256C9.98997 42.1875 11.5277 41.8395 12.307 41.4967C12.4772 40.2575 12.8415 39.15 13.3431 38.2905C9.14497 36.9616 7.39525 32.437 7.39525 27.0581C7.39525 24.4477 7.88195 22.0483 8.83743 20.1129C8.22831 16.9225 8.89416 14.1909 8.98373 13.7848C10.7185 13.5106 12.522 15.9786 12.6623 16.1737C13.6477 15.7043 14.7733 15.4565 16.0334 15.4565C17.2994 15.4565 18.428 15.7149 19.4223 16.1895C19.7597 15.736 21.4318 13.6161 23.0442 13.8745C23.1308 14.2805 23.7817 16.9489 23.2084 20.0971C24.1759 22.0377 24.6685 24.4583 24.6685 27.0739C24.6685 32.4633 22.9069 36.9932 18.6968 38.301C19.0574 38.9273 19.3437 39.6743 19.539 40.4982C19.7344 41.3222 19.8348 42.2066 19.8344 43.0999V49.0325C19.8583 49.5071 19.8344 49.9764 20.2823 49.9764C25.5703 46.8282 29.3772 38.0057 29.3772 27.6118C29.3772 14.5758 23.3936 4.02368 16.0155 4.02368Z" fill="#484FD9"/>
</svg>
