<svg width="59" height="61" viewBox="0 0 59 61" fill="none" xmlns="http://www.w3.org/2000/svg">
<path d="M26.8466 0.0545715L8.93113 43.2411H2.39054C-0.566941 42.2724 -0.168819 36.1106 0.399928 33.1508L12.628 4.89792C14.448 0.377461 17.3675 -0.214503 18.5998 0.0545715H26.8466Z" fill="#484FD9"/>
<path d="M21.7279 15.7954L17.7467 24.6749L30.2591 55.753C32.3066 59.6277 34.5247 60.8655 35.3779 61H45.0466L28.5529 20.2352C26.7329 15.3918 23.2446 15.2573 21.7279 15.7954Z" fill="#484FD9"/>
<path d="M24.5717 45.2591H2.39054L6.37178 55.753C7.50927 58.659 9.68946 60.4618 10.6374 61H24.5717C27.9841 58.7398 28.0789 54.1386 27.6998 52.1205L24.5717 45.2591Z" fill="#484FD9"/>
<path d="M30.2591 21.8496L33.956 31.1327H49.3121L52.4403 21.8496C51.9853 18.2978 49.2174 16.3336 47.8903 15.7954H34.8091C32.5341 16.1183 30.8279 19.9661 30.2591 21.8496Z" fill="#484FD9"/>
<path d="M53.5778 23.4641L42.4872 51.3133L45.6153 59.3856C48.1178 61.9687 50.8288 59.9237 51.8715 58.5783L58.1277 44.0483C59.2652 40.1736 58.9808 37.3214 58.6965 36.3797L53.5778 23.4641Z" fill="#484FD9"/>
</svg>
