<svg width="31" height="54" viewBox="0 0 31 54" fill="none" xmlns="http://www.w3.org/2000/svg">
<path d="M21.6741 31.6354C21.3486 31.34 19.7273 29.9373 19.4257 29.7475C19.1241 29.5471 18.9032 29.4522 18.6852 30.0428C18.4643 30.6281 17.8372 31.9307 17.6402 32.3262C17.4491 32.7164 17.255 32.7639 16.9295 32.4738C14.9947 30.7652 13.7257 29.4258 12.4507 25.5604C12.1133 24.532 12.7881 24.6059 13.4181 22.3857C13.5256 21.9955 13.4719 21.6633 13.3883 21.368C13.3047 21.0727 12.6478 18.2145 12.3731 17.049C12.1073 15.9152 11.8326 16.0734 11.6326 16.0523C11.4415 16.0312 11.2235 16.0312 11.0026 16.0312C10.7816 16.0312 10.4263 16.1789 10.1247 16.7537C9.82314 17.3391 8.97217 18.7471 8.97217 21.6053C8.97217 24.4635 10.1516 27.232 10.3128 27.6223C10.48 28.0125 12.6328 33.8766 15.9382 36.4025C18.0283 37.9951 18.8464 38.1322 19.8915 37.858C20.5275 37.6893 21.8383 36.4553 22.11 35.0895C22.3817 33.7289 22.3817 32.5635 22.3011 32.3209C22.2205 32.0625 21.9995 31.9148 21.6741 31.6354Z" fill="#484FD9"/>
<path d="M27.9952 17.8453C27.3204 15.0135 26.3529 12.4717 25.1198 10.2885C23.8866 8.11055 22.4474 6.39668 20.841 5.21016C19.1988 3.99199 17.455 3.375 15.6576 3.375H15.5978C13.7884 3.39082 12.0357 4.02363 10.3875 5.26816C8.79601 6.47051 7.36877 8.1791 6.14755 10.357C4.92632 12.535 3.96786 15.0662 3.30499 17.8875C2.61824 20.809 2.27188 23.915 2.28084 27.1107C2.2898 30.7705 2.78545 34.4039 3.71406 37.6523V45.668C3.71406 47.0074 4.32915 48.0938 5.08756 48.0938H9.62907C11.4684 49.7338 13.5256 50.6092 15.5978 50.625H15.6605C17.4491 50.625 19.1839 50.0133 20.8171 48.8162C22.4146 47.6402 23.8508 45.9527 25.081 43.7959C26.3141 41.6391 27.2845 39.1184 27.9623 36.3076C28.667 33.3967 29.0253 30.3012 29.0343 27.1055C29.0432 23.8939 28.6909 20.7773 27.9952 17.8453ZM23.4835 40.943C21.3904 44.6027 18.6136 46.6172 15.6576 46.6172H15.6068C13.8063 46.6014 12.0178 45.8104 10.4382 44.3232L10.1874 44.0859H5.98332V36.6609L5.84896 36.218C5.00694 33.4283 4.55906 30.2695 4.5501 27.0896C4.53816 21.832 5.67578 16.8961 7.7629 13.1783C9.84704 9.46055 12.6329 7.40391 15.6098 7.38281H15.6605C17.1535 7.38281 18.6016 7.89434 19.9662 8.90684C21.2979 9.89297 22.4922 11.3115 23.5194 13.1256C24.5435 14.9344 25.3497 17.049 25.9081 19.401C26.4873 21.8373 26.7769 24.4213 26.771 27.0896C26.7531 32.342 25.5856 37.2621 23.4835 40.943Z" fill="#484FD9"/>
</svg>
